<svg width="97" height="64" viewBox="0 0 97 64" fill="none" xmlns="http://www.w3.org/2000/svg">
<path d="M57.7581 13.6516C63.053 36.5863 39.0907 57.3604 39.0907 57.3604C39.0907 57.3604 31.6283 25.0373 29.8876 17.4977C31.1051 10.3146 33.4152 4.89236 40.9548 3.15171C48.4944 1.41106 56.0175 6.11202 57.7581 13.6516Z" fill="#D82543"/>
<path d="M3.15172 26.2585C8.50965 49.4662 39.0907 57.3604 39.0907 57.3604C39.0907 57.3604 31.6283 25.0373 29.8876 17.4977C25.6445 11.5753 21.1912 7.7145 13.6516 9.45515C6.11203 11.1958 1.41107 18.7189 3.15172 26.2585Z" fill="#D82543"/>
<path d="M72.066 47.8932L76.364 37.7677C76.7956 36.7509 77.9698 36.2765 78.9865 36.7081C80.0033 37.1397 80.4777 38.3138 80.0461 39.3306L75.748 49.4562C75.3164 50.4729 74.1423 50.9473 73.1256 50.5157C72.1088 50.0841 71.6344 48.91 72.066 47.8932Z" fill="#EFD386" stroke="#1F1F1F" stroke-linecap="round"/>
<mask id="path-3-inside-1_12_175" fill="white">
<path fill-rule="evenodd" clip-rule="evenodd" d="M78.2051 38.5492C83.7972 40.9229 90.2549 38.3138 92.6287 32.7216C95.0024 27.1295 92.3933 20.6718 86.8011 18.298C81.209 15.9243 74.7513 18.5334 72.3775 24.1256C70.0038 29.7177 72.6129 36.1754 78.2051 38.5492ZM79.3773 35.7876C83.4443 37.514 88.1408 35.6165 89.8671 31.5494C91.5935 27.4824 89.696 22.7859 85.629 21.0596C81.5619 19.3332 76.8654 21.2307 75.1391 25.2977C73.4127 29.3648 75.3102 34.0613 79.3773 35.7876Z"/>
</mask>
<path fill-rule="evenodd" clip-rule="evenodd" d="M78.2051 38.5492C83.7972 40.9229 90.2549 38.3138 92.6287 32.7216C95.0024 27.1295 92.3933 20.6718 86.8011 18.298C81.209 15.9243 74.7513 18.5334 72.3775 24.1256C70.0038 29.7177 72.6129 36.1754 78.2051 38.5492ZM79.3773 35.7876C83.4443 37.514 88.1408 35.6165 89.8671 31.5494C91.5935 27.4824 89.696 22.7859 85.629 21.0596C81.5619 19.3332 76.8654 21.2307 75.1391 25.2977C73.4127 29.3648 75.3102 34.0613 79.3773 35.7876Z" fill="#EFD386"/>
<path d="M91.7082 32.3309C89.5502 37.4147 83.6796 39.7866 78.5958 37.6286L77.8143 39.4697C83.9149 42.0592 90.9596 39.2129 93.5492 33.1124L91.7082 32.3309ZM86.4104 19.2185C91.4942 21.3765 93.8661 27.2471 91.7082 32.3309L93.5492 33.1124C96.1387 27.0118 93.2924 19.9671 87.1919 17.3775L86.4104 19.2185ZM73.2981 24.5163C75.456 19.4325 81.3266 17.0606 86.4104 19.2185L87.1919 17.3775C81.0913 14.788 74.0466 17.6343 71.457 23.7348L73.2981 24.5163ZM78.5958 37.6286C73.512 35.4707 71.1401 29.6001 73.2981 24.5163L71.457 23.7348C68.8675 29.8354 71.7138 36.8801 77.8143 39.4697L78.5958 37.6286ZM88.9466 31.1587C87.4361 34.7174 83.3266 36.3777 79.768 34.8671L78.9865 36.7081C83.5619 38.6503 88.8455 36.5156 90.7876 31.9402L88.9466 31.1587ZM85.2382 21.9801C88.7969 23.4906 90.4572 27.6 88.9466 31.1587L90.7876 31.9402C92.7298 27.3647 90.5951 22.0812 86.0197 20.1391L85.2382 21.9801ZM76.0596 25.6885C77.5701 22.1298 81.6796 20.4695 85.2382 21.9801L86.0197 20.1391C81.4443 18.1969 76.1607 20.3316 74.2186 24.907L76.0596 25.6885ZM79.768 34.8671C76.2093 33.3566 74.549 29.2471 76.0596 25.6885L74.2186 24.907C72.2764 29.4824 74.4111 34.766 78.9865 36.7081L79.768 34.8671Z" fill="#1F1F1F" mask="url(#path-3-inside-1_12_175)"/>
<circle cx="87.4832" cy="25.6489" r="1.5" transform="rotate(23 87.4832 25.6489)" fill="white" fill-opacity="0.38"/>
</svg>
