<svg width="112" height="109" viewBox="0 0 112 109" fill="none" xmlns="http://www.w3.org/2000/svg">
<rect width="112" height="109" />
<g id="heart_two">
<ellipse id="shadow" cx="50" cy="106" rx="28" ry="3" fill="#1E1E1E" fill-opacity="0.11"/>
<path id="left-leg" d="M39 79V105.5" stroke="#1F1F1F" stroke-linecap="round"/>
<path id="right-leg" d="M59 79V105.5" stroke="#1F1F1F" stroke-linecap="round"/>
<g id="Group 1">
<path id="arm-right" d="M83 57C83 57 87.5764 62.4241 92.5 61C97.8647 59.4483 99 52.5 99 52.5" stroke="#1F1F1F" stroke-linecap="round"/>
<path id="arm-left" d="M5.65406 74.0377C5.38971 74.1175 5.24012 74.3966 5.31994 74.6609C5.39976 74.9253 5.67876 75.0749 5.94312 74.995L5.65406 74.0377ZM17.7028 47.4509C17.2034 47.475 17.2034 47.475 17.2034 47.475C17.2034 47.475 17.2034 47.4751 17.2034 47.4752C17.2034 47.4754 17.2034 47.4758 17.2034 47.4763C17.2035 47.4775 17.2036 47.4792 17.2037 47.4817C17.2039 47.4866 17.2042 47.4941 17.2047 47.5042C17.2055 47.5244 17.2068 47.555 17.2083 47.5955C17.2112 47.6764 17.2151 47.7969 17.2188 47.9533C17.2263 48.2662 17.2329 48.7226 17.2296 49.2933C17.2229 50.4351 17.1765 52.0326 17.0172 53.853C16.6976 57.5067 15.9276 62.0052 14.1498 65.5243L15.0424 65.9752C16.9069 62.2844 17.6903 57.6334 18.0134 53.9402C18.1755 52.0871 18.2228 50.4617 18.2296 49.2991C18.2329 48.7176 18.2262 48.2513 18.2186 47.9296C18.2147 47.7687 18.2107 47.6439 18.2076 47.5589C18.206 47.5164 18.2047 47.4839 18.2038 47.4617C18.2033 47.4506 18.2029 47.4421 18.2027 47.4363C18.2025 47.4333 18.2024 47.4311 18.2023 47.4295C18.2023 47.4287 18.2023 47.4281 18.2023 47.4276C18.2023 47.4274 18.2022 47.4272 18.2022 47.4271C18.2022 47.4269 18.2022 47.4268 17.7028 47.4509ZM14.1498 65.5243C12.3665 69.0546 10.2203 71.1874 8.53413 72.4349C7.69011 73.0593 6.95962 73.4632 6.44514 73.7095C6.18791 73.8326 5.98477 73.9163 5.84858 73.9684C5.78049 73.9945 5.72916 74.0126 5.6962 74.0238C5.67971 74.0294 5.66783 74.0333 5.66074 74.0356C5.65719 74.0367 5.65485 74.0375 5.65373 74.0378C5.65317 74.038 5.65291 74.0381 5.65297 74.0381C5.653 74.038 5.6531 74.038 5.65328 74.038C5.65337 74.0379 5.65357 74.0379 5.65361 74.0379C5.65383 74.0378 5.65406 74.0377 5.79859 74.5164C5.94312 74.995 5.94339 74.995 5.94369 74.9949C5.94381 74.9948 5.94412 74.9947 5.94437 74.9947C5.94487 74.9945 5.94544 74.9943 5.9461 74.9941C5.9474 74.9937 5.94903 74.9932 5.95096 74.9926C5.95482 74.9914 5.95992 74.9898 5.96624 74.9878C5.97889 74.9837 5.99639 74.978 6.01856 74.9704C6.06289 74.9553 6.12588 74.933 6.20587 74.9024C6.36583 74.8412 6.59391 74.747 6.87689 74.6115C7.44285 74.3406 8.22882 73.9047 9.1289 73.2388C10.931 71.9055 13.1835 69.655 15.0424 65.9752L14.1498 65.5243Z" fill="black"/>
<g id="heart">
<path d="M100 25C100 67 50 93.5 50 93.5C50 93.5 50 34.3071 50 20.5C55 8.5 61.1929 0 75 0C88.8071 0 100 11.1929 100 25Z" fill="#D82543"/>
<path d="M0 25C0 67.5 50 93.5 50 93.5C50 93.5 50 34.3071 50 20.5C45 8.5 38.8071 0 25 0C11.1929 0 0 11.1929 0 25Z" fill="#D82543"/>
</g>
<g id="Group 2">
<circle id="eye_left" cx="48" cy="43" r="3" fill="#1F1F1F"/>
<circle id="eye-right" cx="68" cy="43" r="3" fill="#1F1F1F"/>
<path id="mouth" d="M51 51C51 51 51.8721 49.5762 58.5 49.5C65.1279 49.4238 66 51 66 51" stroke="#1F1F1F" stroke-linecap="round"/>
<path id="eyebrow-left" d="M45 37C45 37 45.3488 37.9619 48 38C50.6512 38.0381 51 37 51 37" stroke="#1F1F1F" stroke-linecap="round"/>
<path id="eyebrow-right" d="M65.2101 36.7109C65.2101 36.7109 65.3653 35.6034 67.947 34.999C70.5286 34.3946 71.0318 35.2594 71.0318 35.2594" stroke="#1F1F1F" stroke-linecap="round"/>
</g>
<g id="Magnifying glass">
<path id="Vector 5" d="M99.7108 57.982L94.0453 48.5532C93.4764 47.6064 93.7828 46.3777 94.7296 45.8088C95.6764 45.2399 96.9051 45.5462 97.474 46.493L103.139 55.9219C103.708 56.8687 103.402 58.0974 102.455 58.6663C101.508 59.2352 100.28 58.9288 99.7108 57.982Z" fill="#EFD386" stroke="#1F1F1F" stroke-linecap="round"/>
<g id="Subtract">
<mask id="path-13-inside-1_0_1" fill="white">
<path fill-rule="evenodd" clip-rule="evenodd" d="M95.7597 47.5231C100.967 44.3942 102.652 37.6362 99.5231 32.4288C96.3942 27.2214 89.6362 25.5365 84.4288 28.6654C79.2214 31.7943 77.5365 38.5523 80.6654 43.7597C83.7943 48.9671 90.5523 50.652 95.7597 47.5231ZM94.2146 44.9516C98.0018 42.676 99.2272 37.7612 96.9516 33.974C94.676 30.1868 89.7612 28.9613 85.974 31.2369C82.1868 33.5125 80.9613 38.4274 83.2369 42.2146C85.5125 46.0018 90.4274 47.2272 94.2146 44.9516Z"/>
</mask>
<path fill-rule="evenodd" clip-rule="evenodd" d="M95.7597 47.5231C100.967 44.3942 102.652 37.6362 99.5231 32.4288C96.3942 27.2214 89.6362 25.5365 84.4288 28.6654C79.2214 31.7943 77.5365 38.5523 80.6654 43.7597C83.7943 48.9671 90.5523 50.652 95.7597 47.5231ZM94.2146 44.9516C98.0018 42.676 99.2272 37.7612 96.9516 33.974C94.676 30.1868 89.7612 28.9613 85.974 31.2369C82.1868 33.5125 80.9613 38.4274 83.2369 42.2146C85.5125 46.0018 90.4274 47.2272 94.2146 44.9516Z" fill="#EFD386"/>
<path d="M98.6659 32.9439C101.51 37.6779 99.9786 43.8215 95.2446 46.6659L96.2747 48.3803C101.956 44.9669 103.794 37.5946 100.38 31.9138L98.6659 32.9439ZM84.9439 29.5226C89.6779 26.6781 95.8215 28.2099 98.6659 32.9439L100.38 31.9138C96.9669 26.233 89.5946 24.3949 83.9138 27.8083L84.9439 29.5226ZM81.5226 43.2446C78.6781 38.5106 80.2099 32.3671 84.9439 29.5226L83.9138 27.8083C78.233 31.2216 76.3949 38.5939 79.8083 44.2747L81.5226 43.2446ZM95.2446 46.6659C90.5106 49.5104 84.3671 47.9786 81.5226 43.2446L79.8083 44.2747C83.2216 49.9555 90.5939 51.7936 96.2747 48.3803L95.2446 46.6659ZM96.0944 34.489C98.0856 37.8028 97.0133 42.1033 93.6995 44.0944L94.7296 45.8088C98.9902 43.2487 100.369 37.7195 97.8088 33.4589L96.0944 34.489ZM86.489 32.0941C89.8028 30.103 94.1033 31.1752 96.0944 34.489L97.8088 33.4589C95.2487 29.1983 89.7195 27.8197 85.4589 30.3798L86.489 32.0941ZM84.0941 41.6995C82.103 38.3857 83.1752 34.0852 86.489 32.0941L85.4589 30.3798C81.1983 32.9398 79.8197 38.469 82.3798 42.7296L84.0941 41.6995ZM93.6995 44.0944C90.3857 46.0856 86.0852 45.0133 84.0941 41.6995L82.3798 42.7296C84.9398 46.9902 90.469 48.3688 94.7296 45.8088L93.6995 44.0944Z" fill="#1F1F1F" mask="url(#path-13-inside-1_0_1)"/>
</g>
<circle id="Ellipse 10" cx="90.7767" cy="32.4344" r="1.5" transform="rotate(-31 90.7767 32.4344)" fill="white" fill-opacity="0.38"/>
</g>
</g>
</g>
</svg>
