<svg width="117" height="109" viewBox="0 0 117 109" fill="none" xmlns="http://www.w3.org/2000/svg">
<rect width="117" height="109" />
<g id="heart_one">
<ellipse id="shadow" cx="50" cy="106" rx="28" ry="3" fill="#1E1E1E" fill-opacity="0.11"/>
<path id="left-leg" d="M39 79V105.5" stroke="#1F1F1F" stroke-linecap="round"/>
<path id="right-leg" d="M59 79V105.5" stroke="#1F1F1F" stroke-linecap="round"/>
<g id="Group 1">
<path id="arm-right" d="M83 57C83 57 89.5764 59.4241 94.5 58C99.8647 56.4483 104 49.5 104 49.5" stroke="#1F1F1F" stroke-linecap="round"/>
<path id="arm-left" d="M5.8143 75.5358C5.55791 75.6383 5.4332 75.9293 5.53576 76.1857C5.63832 76.4421 5.9293 76.5668 6.1857 76.4642L5.8143 75.5358ZM15.5 48C15.0046 48.0676 15.0046 48.0675 15.0046 48.0675C15.0046 48.0676 15.0046 48.0676 15.0046 48.0677C15.0046 48.0679 15.0047 48.0683 15.0048 48.0689C15.0049 48.07 15.0051 48.0717 15.0055 48.0742C15.0061 48.079 15.0071 48.0865 15.0084 48.0965C15.011 48.1166 15.0149 48.1469 15.0199 48.1871C15.0299 48.2675 15.0443 48.3872 15.0617 48.5427C15.0963 48.8537 15.1427 49.3078 15.1892 49.8766C15.2821 51.0147 15.375 52.6102 15.375 54.4375C15.375 58.1051 15 62.6536 13.5358 66.3143L14.4642 66.6857C16 62.8464 16.375 58.1449 16.375 54.4375C16.375 52.5773 16.2804 50.954 16.1858 49.7953C16.1385 49.2157 16.0912 48.7518 16.0555 48.4319C16.0377 48.272 16.0228 48.148 16.0123 48.0636C16.007 48.0214 16.0029 47.9891 16 47.9671C15.9986 47.9561 15.9975 47.9476 15.9967 47.9418C15.9963 47.939 15.996 47.9367 15.9958 47.9351C15.9957 47.9344 15.9956 47.9337 15.9955 47.9333C15.9955 47.9331 15.9955 47.9329 15.9955 47.9327C15.9954 47.9326 15.9954 47.9324 15.5 48ZM13.5358 66.3143C12.0669 69.9865 10.1147 72.2983 8.54371 73.688C7.75733 74.3836 7.06482 74.8497 6.57376 75.1398C6.32824 75.2849 6.13317 75.386 6.00204 75.4498C5.93648 75.4816 5.88692 75.5042 5.85506 75.5182C5.83914 75.5253 5.82763 75.5302 5.82077 75.5331C5.81734 75.5345 5.81506 75.5354 5.81398 75.5359C5.81343 75.5361 5.81319 75.5362 5.81324 75.5362C5.81327 75.5362 5.81337 75.5361 5.81355 75.5361C5.81364 75.536 5.81382 75.536 5.81387 75.5359C5.81408 75.5359 5.8143 75.5358 6 76C6.1857 76.4642 6.18596 76.4641 6.18625 76.464C6.18637 76.464 6.18667 76.4638 6.18691 76.4638C6.18739 76.4636 6.18795 76.4633 6.18858 76.4631C6.18985 76.4626 6.19142 76.4619 6.19329 76.4612C6.19704 76.4596 6.20198 76.4576 6.2081 76.455C6.22034 76.4499 6.23728 76.4426 6.2587 76.4332C6.30155 76.4143 6.36235 76.3865 6.43937 76.3491C6.5934 76.2742 6.81239 76.1604 7.08249 76.0008C7.62268 75.6816 8.36767 75.1789 9.20629 74.437C10.8853 72.9517 12.9331 70.5135 14.4642 66.6857L13.5358 66.3143Z" fill="black"/>
<g id="heart">
<path d="M100 25C100 67 50 93.5 50 93.5C50 93.5 50 34.3071 50 20.5C55 8.5 61.1929 0 75 0C88.8071 0 100 11.1929 100 25Z" fill="#D82543"/>
<path d="M0 25C0 67.5 50 93.5 50 93.5C50 93.5 50 34.3071 50 20.5C45 8.5 38.8071 0 25 0C11.1929 0 0 11.1929 0 25Z" fill="#D82543"/>
</g>
<g id="Group 2">
<circle id="eye_left" cx="44" cy="43" r="3" fill="#1F1F1F"/>
<circle id="eye-right" cx="64" cy="43" r="3" fill="#1F1F1F"/>
<path id="mouth" d="M47 51C47 51 48.0465 53.0742 54.6744 52.9979C61.3023 52.9217 62 51 62 51" stroke="#1F1F1F" stroke-linecap="round"/>
<path id="eyebrow-left" d="M41 37C41 37 41.4186 35.9629 44.0698 36.001C46.7209 36.0391 47 37 47 37" stroke="#1F1F1F" stroke-linecap="round"/>
<path id="eyebrow-right" d="M61 37C61 37 61.4186 35.9629 64.0698 36.001C66.7209 36.0391 67 37 67 37" stroke="#1F1F1F" stroke-linecap="round"/>
</g>
<g id="Magnifying glass">
<path id="Vector 5" d="M103.744 55.4561L99.9817 45.1195C99.6039 44.0815 100.139 42.9339 101.177 42.5561C102.215 42.1783 103.363 42.7135 103.74 43.7514L107.503 54.088C107.88 55.126 107.345 56.2737 106.307 56.6515C105.269 57.0292 104.122 56.4941 103.744 55.4561Z" fill="#EFD386" stroke="#1F1F1F" stroke-linecap="round"/>
<g id="Subtract">
<mask id="path-13-inside-1_0_1" fill="white">
<path fill-rule="evenodd" clip-rule="evenodd" d="M101.861 44.4355C107.57 42.3576 110.513 36.0454 108.435 30.3366C106.358 24.6279 100.045 21.6844 94.3366 23.7622C88.6279 25.84 85.6844 32.1523 87.7622 37.8611C89.84 43.5698 96.1523 46.5133 101.861 44.4355ZM100.835 41.6164C104.987 40.1052 107.128 35.5145 105.616 31.3627C104.105 27.2109 99.5145 25.0702 95.3627 26.5813C91.2109 28.0924 89.0702 32.6832 90.5813 36.835C92.0924 40.9868 96.6832 43.1275 100.835 41.6164Z"/>
</mask>
<path fill-rule="evenodd" clip-rule="evenodd" d="M101.861 44.4355C107.57 42.3576 110.513 36.0454 108.435 30.3366C106.358 24.6279 100.045 21.6844 94.3366 23.7622C88.6279 25.84 85.6844 32.1523 87.7622 37.8611C89.84 43.5698 96.1523 46.5133 101.861 44.4355ZM100.835 41.6164C104.987 40.1052 107.128 35.5145 105.616 31.3627C104.105 27.2109 99.5145 25.0702 95.3627 26.5813C91.2109 28.0924 89.0702 32.6832 90.5813 36.835C92.0924 40.9868 96.6832 43.1275 100.835 41.6164Z" fill="#EFD386"/>
<path d="M107.496 30.6786C109.385 35.8684 106.709 41.6068 101.519 43.4958L102.203 45.3752C108.431 43.1084 111.642 36.2223 109.375 29.9946L107.496 30.6786ZM94.6786 24.7019C99.8684 22.813 105.607 25.4889 107.496 30.6786L109.375 29.9946C107.108 23.7669 100.222 20.5558 93.9946 22.8225L94.6786 24.7019ZM88.7019 37.519C86.813 32.3293 89.4889 26.5908 94.6786 24.7019L93.9946 22.8225C87.7669 25.0892 84.5558 31.9753 86.8225 38.2031L88.7019 37.519ZM101.519 43.4958C96.3293 45.3847 90.5908 42.7088 88.7019 37.519L86.8225 38.2031C89.0892 44.4308 95.9753 47.6419 102.203 45.3752L101.519 43.4958ZM104.677 31.7047C105.999 35.3375 104.126 39.3544 100.493 40.6767L101.177 42.5561C105.848 40.856 108.256 35.6915 106.556 31.0207L104.677 31.7047ZM95.7047 27.521C99.3375 26.1987 103.354 28.0719 104.677 31.7047L106.556 31.0207C104.856 26.3499 99.6915 23.9416 95.0207 25.6416L95.7047 27.521ZM91.521 36.493C90.1987 32.8601 92.0719 28.8432 95.7047 27.521L95.0207 25.6416C90.3499 27.3416 87.9416 32.5062 89.6416 37.177L91.521 36.493ZM100.493 40.6767C96.8601 41.9989 92.8432 40.1258 91.521 36.493L89.6416 37.177C91.3416 41.8478 96.5062 44.2561 101.177 42.5561L100.493 40.6767Z" fill="#1F1F1F" mask="url(#path-13-inside-1_0_1)"/>
</g>
<circle id="Ellipse 10" cx="99.8487" cy="28.6732" r="1.5" transform="rotate(-20 99.8487 28.6732)" fill="white" fill-opacity="0.38"/>
</g>
</g>
</g>
</svg>
