<svg width="135" height="116" viewBox="0 0 135 116" fill="none" xmlns="http://www.w3.org/2000/svg">
<ellipse cx="55.9999" cy="113" rx="28" ry="3" fill="#1E1E1E" fill-opacity="0.11"/>
<path d="M44.9999 86V112.5" stroke="#1F1F1F" stroke-linecap="round"/>
<path d="M64.9999 86V112.5" stroke="#1F1F1F" stroke-linecap="round"/>
<path d="M87.4404 64.784C87.4404 64.784 87.569 70.7523 89.5 75.5C91.604 80.6731 97.0944 84.885 97.0944 84.885" stroke="#1F1F1F" stroke-linecap="round"/>
<path d="M11.8722 81.3079C11.6052 81.3784 11.446 81.652 11.5165 81.919C11.5871 82.186 11.8607 82.3452 12.1277 82.2747L11.8722 81.3079ZM24.8415 55.1578C24.3415 55.1644 24.3415 55.1644 24.3415 55.1644C24.3415 55.1644 24.3415 55.1645 24.3415 55.1646C24.3415 55.1648 24.3415 55.1652 24.3415 55.1658C24.3415 55.1669 24.3416 55.1686 24.3416 55.1711C24.3416 55.176 24.3417 55.1835 24.3418 55.1936C24.3419 55.2139 24.3421 55.2445 24.3422 55.285C24.3423 55.366 24.342 55.4865 24.3403 55.643C24.3368 55.9559 24.3275 56.4122 24.3042 56.9825C24.2578 58.1234 24.1556 59.7183 23.9329 61.532C23.4859 65.1723 22.5594 69.6412 20.6599 73.0962L21.5362 73.5779C23.5284 69.9544 24.4736 65.3337 24.9254 61.6539C25.1521 59.8076 25.2561 58.1849 25.3034 57.0232C25.3271 56.4422 25.3366 55.976 25.3402 55.6542C25.342 55.4932 25.3423 55.3684 25.3422 55.2833C25.3421 55.2408 25.3419 55.2082 25.3418 55.186C25.3417 55.1749 25.3416 55.1664 25.3415 55.1606C25.3415 55.1577 25.3415 55.1554 25.3415 55.1538C25.3414 55.153 25.3414 55.1524 25.3414 55.1519C25.3414 55.1517 25.3414 55.1515 25.3414 55.1514C25.3414 55.1512 25.3414 55.1511 24.8415 55.1578ZM20.6599 73.0962C18.7544 76.562 16.5351 78.6186 14.8064 79.8065C13.9412 80.4012 13.197 80.7793 12.6742 81.0075C12.4129 81.1216 12.2069 81.1981 12.069 81.2454C12.0001 81.2691 11.9481 81.2854 11.9148 81.2955C11.8981 81.3005 11.8861 81.304 11.8789 81.306C11.8754 81.307 11.873 81.3077 11.8719 81.308C11.8713 81.3081 11.871 81.3082 11.8711 81.3082C11.8711 81.3082 11.8712 81.3081 11.8714 81.3081C11.8715 81.3081 11.8717 81.308 11.8717 81.308C11.872 81.3079 11.8722 81.3079 11.9999 81.7913C12.1277 82.2747 12.1279 82.2746 12.1282 82.2746C12.1284 82.2745 12.1287 82.2744 12.1289 82.2744C12.1294 82.2742 12.13 82.2741 12.1307 82.2739C12.132 82.2735 12.1336 82.2731 12.1356 82.2726C12.1395 82.2715 12.1446 82.2701 12.151 82.2683C12.1638 82.2647 12.1815 82.2595 12.2039 82.2528C12.2488 82.2392 12.3125 82.2191 12.3935 82.1913C12.5555 82.1357 12.7867 82.0495 13.0743 81.924C13.6493 81.673 14.45 81.2648 15.3728 80.6307C17.2203 79.3611 19.55 77.1906 21.5362 73.5779L20.6599 73.0962Z" fill="#1F1F1F"/>
<path d="M108.34 37.2414C103.221 78.9283 50.3646 99.1373 50.3646 99.1373C50.3646 99.1373 57.5784 40.3857 59.2611 26.6815C65.6862 15.3803 72.8688 7.69834 86.573 9.381C100.277 11.0637 110.023 23.5372 108.34 37.2414Z" fill="#D82543"/>
<path d="M9.08533 25.0545C3.90588 67.2377 50.3646 99.1373 50.3646 99.1373C50.3646 99.1373 57.5784 40.3857 59.2611 26.6815C55.7608 14.1616 50.6499 4.9702 36.9457 3.28753C23.2415 1.60487 10.768 11.3503 9.08533 25.0545Z" fill="#D82543"/>
<circle cx="41.3432" cy="46.3432" r="3" transform="rotate(7 41.3432 46.3432)" fill="#1F1F1F"/>
<circle cx="59.3432" cy="49.3432" r="3" transform="rotate(7 59.3432 49.3432)" fill="#1F1F1F"/>
<path d="M42.2437 55C42.2437 55 43.0296 57.1863 49.6174 57.9183C56.2052 58.6504 57.1319 56.828 57.1319 56.828" stroke="#1F1F1F" stroke-linecap="round"/>
<path d="M38.9999 39.9926C38.9999 39.9926 39.5418 39.0142 42.1686 39.3751C44.7953 39.7361 44.9552 40.7238 44.9552 40.7238" stroke="#1F1F1F" stroke-linecap="round"/>
<path d="M56.9999 42.9926C56.9999 42.9926 57.5418 42.0142 60.1686 42.3751C62.7953 42.7361 62.9552 43.7238 62.9552 43.7238" stroke="#1F1F1F" stroke-linecap="round"/>
<path d="M89.8275 84.6644L100.587 82.3774C101.668 82.1477 102.73 82.8374 102.959 83.9178C103.189 84.9983 102.499 86.0603 101.419 86.29L90.6591 88.577C89.5787 88.8066 88.5167 88.117 88.287 87.0365C88.0574 85.9561 88.7471 84.8941 89.8275 84.6644Z" fill="#EFD386" stroke="#1F1F1F" stroke-linecap="round"/>
<mask id="path-13-inside-1_11_127" fill="white">
<path fill-rule="evenodd" clip-rule="evenodd" d="M101.003 84.3337C102.266 90.2761 108.107 94.0694 114.05 92.8063C119.992 91.5432 123.785 85.702 122.522 79.7596C121.259 73.8172 115.418 70.0239 109.476 71.287C103.533 72.5501 99.7399 78.3913 101.003 84.3337ZM103.937 83.7099C104.856 88.0317 109.104 90.7904 113.426 89.8718C117.748 88.9532 120.506 84.7051 119.588 80.3834C118.669 76.0616 114.421 73.3029 110.099 74.2215C105.778 75.1401 103.019 79.3882 103.937 83.7099Z"/>
</mask>
<path fill-rule="evenodd" clip-rule="evenodd" d="M101.003 84.3337C102.266 90.2761 108.107 94.0694 114.05 92.8063C119.992 91.5432 123.785 85.702 122.522 79.7596C121.259 73.8172 115.418 70.0239 109.476 71.287C103.533 72.5501 99.7399 78.3913 101.003 84.3337ZM103.937 83.7099C104.856 88.0317 109.104 90.7904 113.426 89.8718C117.748 88.9532 120.506 84.7051 119.588 80.3834C118.669 76.0616 114.421 73.3029 110.099 74.2215C105.778 75.1401 103.019 79.3882 103.937 83.7099Z" fill="#EFD386"/>
<path d="M113.842 91.8281C108.44 92.9764 103.129 89.5279 101.981 84.1258L100.025 84.5416C101.403 91.0242 107.775 95.1623 114.258 93.7844L113.842 91.8281ZM121.544 79.9675C122.692 85.3697 119.244 90.6799 113.842 91.8281L114.258 93.7844C120.74 92.4065 124.878 86.0343 123.5 79.5517L121.544 79.9675ZM109.683 72.2652C115.086 71.1169 120.396 74.5654 121.544 79.9675L123.5 79.5517C122.122 73.0691 115.75 68.931 109.268 70.3089L109.683 72.2652ZM101.981 84.1258C100.833 78.7236 104.281 73.4134 109.683 72.2652L109.268 70.3089C102.785 71.6868 98.6469 78.059 100.025 84.5416L101.981 84.1258ZM113.218 88.8937C109.436 89.6975 105.719 87.2835 104.916 83.502L102.959 83.9179C103.993 88.7798 108.772 91.8834 113.634 90.85L113.218 88.8937ZM118.61 80.5913C119.413 84.3728 116.999 88.0899 113.218 88.8937L113.634 90.85C118.496 89.8165 121.599 85.0374 120.566 80.1754L118.61 80.5913ZM110.307 75.1996C114.089 74.3958 117.806 76.8098 118.61 80.5913L120.566 80.1754C119.532 75.3135 114.753 72.2099 109.891 73.2433L110.307 75.1996ZM104.916 83.502C104.112 79.7205 106.526 76.0034 110.307 75.1996L109.891 73.2433C105.029 74.2768 101.926 79.0559 102.959 83.9179L104.916 83.502Z" fill="#1F1F1F" mask="url(#path-13-inside-1_11_127)"/>
<circle cx="116.892" cy="84.5346" r="1.5" transform="rotate(78 116.892 84.5346)" fill="white" fill-opacity="0.38"/>
</svg>
